<?xml version="1.0" standalone="no"?>
<!DOCTYPE svg PUBLIC "-//W3C//DTD SVG 20010904//EN"
 "http://www.w3.org/TR/2001/REC-SVG-20010904/DTD/svg10.dtd">
<svg version="1.0" xmlns="http://www.w3.org/2000/svg"
 width="1024.000000pt" height="1024.000000pt" viewBox="0 0 1024.000000 1024.000000"
 preserveAspectRatio="xMidYMid meet">

<g transform="translate(0.000000,1024.000000) scale(0.100000,-0.100000)"
fill="#000000" stroke="none">
<path d="M945 6331 c-176 -18 -289 -101 -347 -256 -23 -60 -23 -64 -26 -687
-3 -694 -3 -698 61 -827 55 -113 143 -191 357 -319 303 -180 522 -302 565
-313 46 -13 127 -6 176 15 40 17 428 243 607 354 144 89 214 158 265 262 62
123 65 156 72 751 4 363 2 558 -5 605 -31 196 -165 343 -365 400 -53 16 -128
18 -675 20 -338 1 -646 -1 -685 -5z m956 -391 c82 -16 158 -57 225 -124 72
-73 110 -145 131 -256 14 -69 15 -94 5 -154 -26 -155 -121 -283 -255 -341
l-64 -28 120 -156 c66 -86 149 -193 184 -238 l64 -83 -188 1 -188 0 -160 227
-161 227 -102 3 -102 3 0 -231 0 -230 -150 0 -150 0 -2 578 -3 577 -36 82
c-20 45 -46 95 -58 111 -11 17 -21 33 -21 36 0 10 854 7 911 -4z"/>
<path d="M1410 5477 l0 -188 223 3 224 3 36 28 c52 40 70 80 71 157 1 52 -4
73 -23 103 -43 70 -49 71 -303 77 l-228 5 0 -188z"/>
<path d="M5220 5243 l0 -643 133 0 133 0 -1 35 c-1 19 2 35 7 35 4 0 8 -4 8
-9 0 -17 118 -70 183 -81 161 -28 327 49 411 192 79 136 89 396 20 544 -30 65
-114 148 -184 182 -51 25 -65 27 -175 27 -106 0 -125 -3 -168 -24 -26 -13 -61
-36 -77 -51 l-30 -28 0 228 0 229 -130 3 -130 3 0 -642z m587 41 c103 -83 128
-247 57 -385 -53 -106 -172 -142 -280 -86 -76 39 -120 135 -118 257 2 85 18
131 66 186 46 52 80 65 165 61 63 -2 76 -6 110 -33z"/>
<path d="M3170 5240 l0 -640 130 0 130 0 0 230 0 230 79 0 79 0 151 -230 152
-230 155 0 155 0 -170 252 -170 252 39 22 c146 83 207 199 198 373 -9 162 -71
262 -201 326 -95 47 -162 54 -474 55 l-253 0 0 -640z m516 419 c32 -6 74 -20
93 -31 91 -56 93 -233 3 -296 -46 -34 -135 -52 -249 -52 l-103 0 0 195 0 195
98 0 c54 0 125 -5 158 -11z"/>
<path d="M8350 5787 c-19 -12 -70 -29 -114 -38 l-78 -15 1 -112 2 -112 -70 0
-71 0 0 -90 c0 -103 5 -110 89 -110 l50 0 1 -245 c1 -263 5 -293 56 -367 66
-95 215 -137 387 -109 57 9 65 16 49 41 -7 11 -12 48 -12 84 l0 63 -80 5
c-140 8 -150 30 -150 318 l0 210 115 0 115 0 0 100 0 100 -115 0 -115 0 0 139
c0 160 -5 173 -60 138z"/>
<path d="M4546 5529 c-132 -22 -272 -131 -335 -261 -117 -241 -14 -537 226
-651 66 -31 72 -32 203 -32 131 0 137 1 203 32 89 42 175 125 220 211 47 92
61 156 55 268 -4 79 -10 103 -40 166 -97 205 -300 306 -532 267z m216 -244
c30 -21 52 -49 73 -90 26 -52 30 -71 30 -140 0 -122 -45 -207 -130 -246 -104
-48 -226 -3 -283 104 -23 45 -27 63 -27 142 0 101 19 157 71 209 45 44 81 57
156 53 55 -2 75 -8 110 -32z"/>
<path d="M9061 5529 c-168 -28 -321 -172 -366 -344 -43 -167 -1 -341 114 -467
100 -109 259 -161 427 -137 196 27 361 196 396 407 33 196 -76 409 -256 497
-102 51 -195 64 -315 44z m184 -228 c145 -66 183 -315 67 -443 -45 -50 -86
-68 -149 -68 -129 1 -223 108 -225 257 -1 85 14 138 53 192 54 76 165 103 254
62z"/>
<path d="M7463 5516 c-149 -48 -230 -159 -221 -300 7 -117 73 -179 229 -216
148 -36 192 -52 221 -80 83 -84 -44 -196 -169 -149 -40 15 -81 57 -94 96 -12
37 -13 38 -157 26 l-83 -6 7 -41 c15 -91 76 -171 164 -216 140 -71 358 -62
483 20 153 102 181 319 55 425 -47 40 -97 60 -221 89 -119 29 -158 45 -181 78
-23 32 -20 53 13 90 25 28 35 32 78 32 59 0 95 -20 119 -65 l16 -32 101 7 c56
4 104 9 106 12 11 10 -22 101 -48 134 -15 19 -58 51 -96 70 -63 32 -74 35
-174 37 -69 2 -121 -2 -148 -11z"/>
<path d="M6272 5158 c3 -339 4 -355 26 -410 46 -115 150 -174 291 -166 91 5
160 33 214 86 l37 36 0 -52 0 -52 120 0 120 0 -2 453 -3 452 -117 3 -117 3 -3
-303 c-3 -345 -5 -350 -86 -389 -53 -26 -129 -22 -170 8 -59 43 -62 59 -62
386 l0 297 -126 0 -125 0 3 -352z"/>
</g>
</svg>
